<?xml version="1.0" standalone="no"?>
<!DOCTYPE svg PUBLIC "-//W3C//DTD SVG 20010904//EN"
 "http://www.w3.org/TR/2001/REC-SVG-20010904/DTD/svg10.dtd">
<svg version="1.0" xmlns="http://www.w3.org/2000/svg"
 width="700.000000pt" height="700.000000pt" viewBox="0 0 700.000000 700.000000"
 preserveAspectRatio="xMidYMid meet">
<metadata>
Created by potrace 1.14, written by Peter Selinger 2001-2017
</metadata>
<g transform="translate(0.000000,700.000000) scale(0.100000,-0.100000)"
fill="#000000" stroke="none">
<path d="M2040 5653 c-346 -57 -637 -335 -738 -704 -12 -41 -24 -90 -28 -109
-12 -54 -15 -2503 -3 -2585 41 -287 201 -559 436 -738 130 -99 316 -182 458
-204 17 -3 50 -9 75 -14 55 -10 2509 -6 2565 5 372 73 655 294 771 604 66 175
67 351 2 577 -11 39 -24 86 -29 105 -30 104 -111 327 -172 470 -32 76 -188
389 -223 447 -10 17 -34 57 -53 90 -93 160 -251 382 -410 573 -100 121 -380
407 -491 501 -218 186 -512 398 -642 465 -18 9 -35 20 -38 23 -8 9 -40 27
-228 123 -295 152 -639 280 -957 358 -50 12 -248 21 -295 13z"/>
</g>
</svg>
