<svg viewBox="0 0 90 90" fill="none" xmlns="http://www.w3.org/2000/svg">
<path fill-rule="evenodd" clip-rule="evenodd" d="M86.659 90.0002C85.888 90.0002 85.116 89.7042 84.529 89.1122L72.8873 77.3752H11.363C5.098 77.3752 0 72.2472 0 65.9432V27.2551C0 20.9522 5.098 15.8232 11.363 15.8232H11.835L1.211 5.11215C0.0440007 3.93715 0.0520009 2.03715 1.228 0.87015C2.404 -0.29685 4.304 -0.28885 5.471 0.88715L33.7312 29.3786L33.75 29.3972C33.7679 29.4149 33.7856 29.4329 33.803 29.451L88.789 84.8872C89.956 86.0632 89.948 87.9622 88.771 89.1292C88.187 89.7102 87.423 90.0002 86.659 90.0002ZM27.5512 31.6679L17.6469 21.6826C17.0763 21.7761 16.4979 21.8232 15.915 21.8232H11.363C8.406 21.8232 6 24.2602 6 27.2551V65.9432C6 68.9382 8.406 71.3752 11.363 71.3752H66.936L58.2192 62.587C54.4342 65.4857 49.8373 67.0542 45 67.0542C32.925 67.0542 23.101 57.1602 23.101 45.0002C23.101 40.1215 24.6639 35.484 27.5512 31.6679ZM53.9448 58.2776C51.3282 60.083 48.2378 61.0542 45 61.0542C36.233 61.0542 29.101 53.8532 29.101 45.0002C29.101 41.7391 30.0576 38.6264 31.837 35.9888L53.9448 58.2776ZM85.412 73.8842C84.807 73.8842 84.195 73.7011 83.665 73.3212C82.319 72.3551 82.012 70.4802 82.978 69.1342C83.646 68.2032 84 67.1002 84 65.9431V27.2551C84 24.2602 81.594 21.8232 78.637 21.8232H74.085C70.102 21.8232 66.463 19.6271 64.589 16.0911L63.214 13.5001C62.039 11.2841 59.767 9.90815 57.281 9.90815H32.719C30.761 9.90815 28.904 10.7682 27.624 12.2671C26.548 13.5272 24.656 13.6771 23.395 12.6011C22.135 11.5251 21.985 9.63215 23.061 8.37215C25.482 5.53515 29.003 3.90815 32.72 3.90815H57.283C61.995 3.90815 66.3 6.50715 68.516 10.6901L69.891 13.2811C70.722 14.8491 72.329 15.8231 74.086 15.8231H78.638C84.902 15.8231 90 20.9522 90 27.2551V65.9431C90 68.3632 89.257 70.6762 87.852 72.6332C87.266 73.4492 86.346 73.8842 85.412 73.8842ZM62.986 51.6022C63.177 51.6382 63.367 51.6572 63.555 51.6572C64.965 51.6562 66.222 50.6582 66.499 49.2222C66.765 47.8362 66.9 46.4152 66.9 44.9992C66.9 32.8382 57.076 22.9452 45.001 22.9452C43.526 22.9452 42.053 23.0942 40.621 23.3872C38.998 23.7202 37.951 25.3042 38.284 26.9282C38.617 28.5512 40.202 29.5992 41.825 29.2652C42.861 29.0522 43.93 28.9452 45.001 28.9452C53.767 28.9452 60.9 36.1472 60.9 44.9992C60.9 46.0352 60.801 47.0752 60.606 48.0892C60.294 49.7162 61.359 51.2892 62.986 51.6022Z" fill="black"/>
</svg>
